<svg width="32" height="32" viewBox="0 0 32 32" fill="none" xmlns="http://www.w3.org/2000/svg">
<path d="M27.2637 4.65455C24.1219 1.62909 20.1655 0 15.8601 0C11.5546 0 7.48188 1.62909 4.45642 4.65455C3.99097 5.12 3.99097 5.93455 4.45642 6.28364C4.92188 6.63273 5.62006 6.63273 6.08551 6.28364C8.76188 3.60727 12.1364 2.21091 15.7437 2.21091C19.351 2.21091 22.8419 3.72364 25.4019 6.28364C30.7546 11.6364 30.7546 20.3636 25.4019 25.7164C22.8419 28.3927 19.351 29.7891 15.7437 29.7891C12.1364 29.7891 8.64551 28.2764 6.08551 25.7164C5.62006 25.2509 4.92188 25.2509 4.45642 25.7164C3.99097 26.1818 3.99097 26.88 4.45642 27.3455C7.59824 30.3709 11.5546 32 15.8601 32C20.1655 32 24.2382 30.6036 27.2637 27.4618C30.2891 24.32 31.9182 20.3636 31.9182 16.0582C31.9182 11.7527 30.4055 7.68 27.2637 4.65455Z" fill="#1589EE"/>
<path d="M5.96909 15.9418C5.96909 15.2436 5.50364 14.7782 4.80545 14.7782H1.66364C0.965455 14.7782 0.5 15.2436 0.5 15.9418C0.5 16.64 0.965455 17.1055 1.66364 17.1055H4.80545C5.50364 17.1055 5.96909 16.64 5.96909 15.9418Z" fill="#1589EE"/>
<path d="M7.94736 15.9418C7.94736 16.64 8.41281 17.1055 9.11099 17.1055H18.5364L13.1837 22.4582C12.7183 22.9237 12.7183 23.6218 13.1837 24.0873C13.4164 24.32 13.6492 24.4364 13.9983 24.4364C14.3474 24.4364 14.5801 24.32 14.8128 24.0873L22.0274 16.8728C22.2601 16.64 22.3764 16.4073 22.3764 16.0582C22.3764 15.7091 22.2601 15.4764 22.1437 15.36L14.8128 8.02911C14.3474 7.56366 13.6492 7.56366 13.1837 8.02911C12.7183 8.49457 12.7183 9.19275 13.1837 9.6582L18.3037 14.7782H9.11099C8.41281 14.7782 7.94736 15.2437 7.94736 15.9418Z" fill="#1589EE"/>
</svg>
