<svg width="33" height="32" viewBox="0 0 33 32" fill="none" xmlns="http://www.w3.org/2000/svg">
<path fill-rule="evenodd" clip-rule="evenodd" d="M16.2131 0C24.9817 0 32.1031 7.05383 32.2117 15.7964C32.321 24.5721 25.2588 31.8528 16.4838 31.9978C9.13244 32.1194 2.89103 27.2816 0.887469 20.6099C0.437135 19.1111 1.55878 17.6013 3.12382 17.6013L15.8109 17.5999C16.6429 17.5999 17.0598 18.606 16.4714 19.1942L13.939 21.7255C13.3768 22.288 13.3204 23.1646 13.7705 23.7899L13.939 23.9883C14.5015 24.5505 15.3784 24.6069 16.0034 24.1571L16.2018 23.9883L23.0589 17.1311C23.6214 16.5686 23.6775 15.692 23.2277 15.0667L23.0589 14.8683L16.2375 8.04694C15.6111 7.42055 14.583 7.37981 13.9504 8.00006C13.3776 8.562 13.3176 9.4462 13.7704 10.0757L13.9389 10.2741L16.4694 12.8034C17.0575 13.3915 16.641 14.3973 15.8092 14.3976L3.12425 14.3979C1.55705 14.3979 0.43762 12.8853 0.888762 11.3845C2.81926 4.96573 8.67231 0.245244 15.663 0.00881601L16.2131 0Z" fill="#F4F6F9"/>
</svg>
