<svg width="49" height="48" viewBox="0 0 49 48" fill="none" xmlns="http://www.w3.org/2000/svg">
<g filter="url(#filter0_d_4888_13234)">
<path fill-rule="evenodd" clip-rule="evenodd" d="M14.5 0C8.97715 0 4.5 4.47715 4.5 10V30C4.5 35.5228 8.97715 40 14.5 40H34.5C40.0228 40 44.5 35.5228 44.5 30V10C44.5 4.47715 40.0228 0 34.5 0H14.5ZM14.5 16.8482C14.5 11.2305 19.0544 6.66667 24.6815 6.66667C30.2962 6.66667 34.8631 11.2338 34.8631 16.8482C34.8631 22.4781 24.6815 33.3333 24.6815 33.3333C24.6815 33.3333 14.5 22.4781 14.5 16.8482ZM23.2941 23.1924C23.7359 23.2818 24.2026 23.3344 24.6815 23.3344L24.6807 23.3343C28.4044 23.3343 31.4232 20.3124 31.4202 16.5826C31.4202 12.85 28.3984 9.84036 24.678 9.84036C20.9578 9.84036 17.9357 12.8469 17.9357 16.5826C17.9357 19.1257 19.3354 21.3288 21.4119 22.4845V14.0582H28.8434L26.8966 16.7434L28.8434 19.4286H23.2941V23.1924Z" fill="white"/>
</g>
<defs>
<filter id="filter0_d_4888_13234" x="0.5" y="0" width="48" height="48" filterUnits="userSpaceOnUse" color-interpolation-filters="sRGB">
<feFlood flood-opacity="0" result="BackgroundImageFix"/>
<feColorMatrix in="SourceAlpha" type="matrix" values="0 0 0 0 0 0 0 0 0 0 0 0 0 0 0 0 0 0 127 0" result="hardAlpha"/>
<feOffset dy="4"/>
<feGaussianBlur stdDeviation="2"/>
<feComposite in2="hardAlpha" operator="out"/>
<feColorMatrix type="matrix" values="0 0 0 0 0 0 0 0 0 0 0 0 0 0 0 0 0 0 0.25 0"/>
<feBlend mode="normal" in2="BackgroundImageFix" result="effect1_dropShadow_4888_13234"/>
<feBlend mode="normal" in="SourceGraphic" in2="effect1_dropShadow_4888_13234" result="shape"/>
</filter>
</defs>
</svg>
