<svg width="26" height="32" viewBox="0 0 26 32" fill="none" xmlns="http://www.w3.org/2000/svg">
<path d="M13 0C6.24747 0 0.78215 5.47664 0.78215 12.2178C0.78215 18.9737 13 32 13 32C13 32 25.2178 18.9737 25.2178 12.2178C25.2178 5.48055 19.7376 0 13 0ZM13 20.0013C12.4253 20.0013 11.8653 19.9382 11.335 19.8309V15.3143H17.9942L15.6581 12.0921L17.9942 8.86984H9.07647V18.9814C6.58463 17.5946 4.90498 14.9509 4.90498 11.8991C4.90498 7.41624 8.53153 3.80843 12.9957 3.80843C17.4603 3.80843 21.0864 7.41995 21.0864 11.8991C21.09 16.3748 17.4674 20.0011 12.999 20.0011L13 20.0013Z" fill="#F4F6F9"/>
</svg>
