<svg width="27" height="30" viewBox="0 0 27 30" fill="none" xmlns="http://www.w3.org/2000/svg">
<path fill-rule="evenodd" clip-rule="evenodd" d="M2.39062 0C1.07812 0 0 1.07812 0 2.39062V27.6094C0 28.9219 1.07812 30 2.39062 30H23.8594C25.1719 30 26.25 28.9219 26.25 27.6094V9.51562L17.3906 0H2.39062V0Z" fill="#3C8CEA"/>
<path fill-rule="evenodd" clip-rule="evenodd" d="M14.8594 17.5312H4.73438V18.5156H14.8594V17.5312ZM14.8594 19.7812H4.73438V20.7656H14.8594V19.7812ZM4.73438 22.0312H14.8594V23.0156H4.73438V22.0312ZM10.5 24.2812H4.73438V25.2656H10.5V24.2812Z" fill="white"/>
<path d="M26.2502 9.5625V10.0312H20.2502C20.2502 10.0312 17.2502 9.42188 17.3439 6.89062C17.3439 6.89062 17.4377 9.5625 20.1564 9.5625H26.2502Z" fill="#2D6FE4"/>
<path opacity="0.5" d="M17.3906 0V6.84375C17.3906 7.59375 17.9062 9.5625 20.25 9.5625H26.25L17.3906 0Z" fill="white"/>
</svg>
