<svg width="48" height="48" viewBox="0 0 48 48" fill="none" xmlns="http://www.w3.org/2000/svg">
<g filter="url(#filter0_d_6021_142216)">
<path fill-rule="evenodd" clip-rule="evenodd" d="M14 0C8.47715 0 4 4.47715 4 10V30C4 35.5228 8.47715 40 14 40H34C39.5228 40 44 35.5228 44 30V10C44 4.47715 39.5228 0 34 0H14ZM31.4259 29.3305C30.9971 29.7591 30.4158 29.9999 29.8095 29.9999L17.619 30C17.0127 30 16.4315 29.7592 16.0027 29.3306C15.5742 28.9019 15.3333 28.3206 15.3333 27.7143V15.3941C15.3327 15.0655 15.4029 14.7407 15.5391 14.4417C15.6566 14.1947 15.8136 13.9681 16.0038 13.7714L20.438 9.33708C20.6348 9.14694 20.8613 8.98997 21.1084 8.87246C21.4074 8.73623 21.7322 8.66599 22.0608 8.66667H29.8095C30.4158 8.66667 30.9971 8.90749 31.4259 9.33606C31.8544 9.76481 32.0953 10.3461 32.0953 10.9524V27.7142C32.0953 28.3205 31.8544 28.9018 31.4259 29.3305ZM25.2381 18.2178C24.2953 18.7622 23.7143 19.7683 23.7143 20.8571V25.8095C23.7143 26.4899 24.0774 27.1188 24.6667 27.459C25.256 27.7993 25.9822 27.7993 26.5715 27.459C27.1607 27.1188 27.5238 26.4899 27.5238 25.8095V20.8571H26V25.8095C26 26.0198 25.8295 26.1904 25.6191 26.1904C25.4087 26.1904 25.2381 26.0198 25.2381 25.8095V20.8571C25.2381 20.3128 25.5286 19.8097 26 19.5374C26.4715 19.2653 27.0524 19.2653 27.5238 19.5374C27.9953 19.8096 28.2857 20.3127 28.2857 20.8571V26.1904H29.8095V20.8571C29.8095 19.7683 29.2286 18.7622 28.2857 18.2178C27.3429 17.6734 26.181 17.6734 25.2381 18.2178ZM20.6667 13.238V11.2724L17.9392 13.9999H19.9048C20.1069 13.9999 20.3007 13.9196 20.4436 13.7768C20.5864 13.6339 20.6667 13.44 20.6667 13.238Z" fill="white"/>
</g>
<defs>
<filter id="filter0_d_6021_142216" x="0" y="0" width="48" height="48" filterUnits="userSpaceOnUse" color-interpolation-filters="sRGB">
<feFlood flood-opacity="0" result="BackgroundImageFix"/>
<feColorMatrix in="SourceAlpha" type="matrix" values="0 0 0 0 0 0 0 0 0 0 0 0 0 0 0 0 0 0 127 0" result="hardAlpha"/>
<feOffset dy="4"/>
<feGaussianBlur stdDeviation="2"/>
<feComposite in2="hardAlpha" operator="out"/>
<feColorMatrix type="matrix" values="0 0 0 0 0 0 0 0 0 0 0 0 0 0 0 0 0 0 0.25 0"/>
<feBlend mode="normal" in2="BackgroundImageFix" result="effect1_dropShadow_6021_142216"/>
<feBlend mode="normal" in="SourceGraphic" in2="effect1_dropShadow_6021_142216" result="shape"/>
</filter>
</defs>
</svg>
