<svg width="26" height="32" viewBox="0 0 26 32" fill="none" xmlns="http://www.w3.org/2000/svg">
<path d="M22.1429 31.9999C23.0524 31.9999 23.9243 31.6387 24.5674 30.9958C25.2103 30.3527 25.5715 29.4808 25.5715 28.5713V3.42857C25.5715 2.51912 25.2103 1.64722 24.5674 1.00409C23.9243 0.361227 23.0524 7.34166e-06 22.1429 7.34166e-06H10.5198C10.0269 -0.00101306 9.53966 0.104347 9.0912 0.308682C8.72054 0.484956 8.38074 0.720416 8.08562 1.00563L1.43422 7.65703C1.14901 7.95218 0.913552 8.29198 0.737272 8.66261C0.532936 9.11108 0.427577 9.59832 0.428596 10.0912V28.5714C0.428596 29.4809 0.789816 30.3528 1.43267 30.9959C2.07579 31.6388 2.94771 32 3.85716 32L22.1429 31.9999ZM13.0001 18.2857C13.0001 16.6525 13.8715 15.1433 15.2858 14.3267C16.7001 13.5102 18.4429 13.5102 19.8572 14.3267C21.2715 15.1433 22.1429 16.6525 22.1429 18.2857V26.2856H19.8572V18.2857C19.8572 17.4691 19.4215 16.7145 18.7144 16.3061C18.0072 15.8979 17.1358 15.8979 16.4286 16.3061C15.7215 16.7145 15.2858 17.4691 15.2858 18.2857V25.7142C15.2858 26.0298 15.5417 26.2856 15.8572 26.2856C16.1728 26.2856 16.4286 26.0298 16.4286 25.7142V18.2857H18.7144V25.7142C18.7144 26.7349 18.1697 27.6782 17.2858 28.1884C16.4019 28.6989 15.3126 28.6989 14.4287 28.1884C13.5447 27.6782 13.0001 26.7349 13.0001 25.7142V18.2857ZM8.42867 3.90857V6.857C8.42867 7.16005 8.30826 7.45087 8.09398 7.66516C7.8797 7.87944 7.58888 7.99985 7.28582 7.99985H4.33739L8.42867 3.90857Z" fill="#F4F6F9"/>
</svg>
