<svg width="48" height="48" viewBox="0 0 48 48" fill="none" xmlns="http://www.w3.org/2000/svg">
<g filter="url(#filter0_d_4057_11066)">
<path fill-rule="evenodd" clip-rule="evenodd" d="M14 0C8.47715 0 4 4.47715 4 10V30C4 35.5228 8.47715 40 14 40H34C39.5228 40 44 35.5228 44 30V10C44 4.47715 39.5228 0 34 0H14ZM14.0352 23.3096C13.6141 23.1131 13.3333 22.6918 13.3333 22.2146L13.3332 12.1069L21.3915 15.813V21.8497C20.5493 23.0289 20.0158 24.461 19.8754 25.9771L14.0352 23.3096ZM30.4606 10.1412L23.1043 6.77191C22.7954 6.63148 22.4304 6.63148 22.0935 6.77191L14.7371 10.1412L22.5989 13.7351L30.4606 10.1412ZM28.2708 18.3116C26.6142 18.3116 25.0981 18.7891 23.8065 19.6033L23.8065 15.8125L31.8929 12.1064L31.8927 19.1258C30.7977 18.6205 29.5624 18.3116 28.2708 18.3116ZM28.2705 20.1648C24.6486 20.1648 21.7004 23.113 21.7004 26.735C21.7002 30.3571 24.6484 33.3332 28.2705 33.3332C31.8924 33.3332 34.8407 30.385 34.8407 26.763C34.8407 23.1409 31.8925 20.1648 28.2705 20.1648ZM28.2705 31.6486C25.575 31.6486 23.385 29.4585 23.385 26.763C23.385 24.0675 25.575 21.8774 28.2705 21.8774C30.9661 21.8774 33.1561 24.0675 33.1561 26.763C33.1559 29.4585 30.9658 31.6486 28.2705 31.6486ZM29.113 25.8927H30.3484C30.8257 25.8927 31.1908 26.2575 31.1908 26.7348C31.1908 27.2121 30.8257 27.5772 30.3484 27.5772H28.2706C27.7933 27.5772 27.4282 27.2121 27.4282 26.7348V24.1237C27.4282 23.6464 27.7933 23.2813 28.2706 23.2813C28.7479 23.2813 29.113 23.6464 29.113 24.1237V25.8927Z" fill="white"/>
</g>
<defs>
<filter id="filter0_d_4057_11066" x="0" y="0" width="48" height="48" filterUnits="userSpaceOnUse" color-interpolation-filters="sRGB">
<feFlood flood-opacity="0" result="BackgroundImageFix"/>
<feColorMatrix in="SourceAlpha" type="matrix" values="0 0 0 0 0 0 0 0 0 0 0 0 0 0 0 0 0 0 127 0" result="hardAlpha"/>
<feOffset dy="4"/>
<feGaussianBlur stdDeviation="2"/>
<feComposite in2="hardAlpha" operator="out"/>
<feColorMatrix type="matrix" values="0 0 0 0 0 0 0 0 0 0 0 0 0 0 0 0 0 0 0.25 0"/>
<feBlend mode="normal" in2="BackgroundImageFix" result="effect1_dropShadow_4057_11066"/>
<feBlend mode="normal" in="SourceGraphic" in2="effect1_dropShadow_4057_11066" result="shape"/>
</filter>
</defs>
</svg>
