<svg width="26" height="32" viewBox="0 0 26 32" fill="none" xmlns="http://www.w3.org/2000/svg">
<path d="M0.0949536 18.6581C0.0949536 19.2308 0.431984 19.7364 0.937289 19.9721L7.94552 23.1732C8.11404 21.3538 8.75423 19.6353 9.76485 18.2202V10.9761L0.0948334 6.52872L0.0949536 18.6581Z" fill="#F4F6F9"/>
<path d="M20.6486 4.16954L11.8209 0.126386C11.4503 -0.0421288 11.0122 -0.0421288 10.608 0.126386L1.7803 4.16954L11.2145 8.4823L20.6486 4.16954Z" fill="#F4F6F9"/>
<path d="M12.6618 15.5248C14.2119 14.5478 16.0312 13.9748 18.019 13.9748C19.569 13.9748 21.0513 14.3455 22.3654 14.9518L22.3656 6.52844L12.6619 10.9759L12.6618 15.5248Z" fill="#F4F6F9"/>
<path d="M18.0209 16.1978C13.6746 16.1978 10.1366 19.7357 10.1366 24.082C10.1364 28.4286 13.6743 32 18.0209 32C22.3672 32 25.9052 28.4621 25.9052 24.1157C25.9052 19.7692 22.3673 16.1978 18.0209 16.1978ZM18.0209 29.9784C14.7862 29.9784 12.1582 27.3503 12.1582 24.1157C12.1582 20.8811 14.7863 18.253 18.0209 18.253C21.2556 18.253 23.8836 20.8811 23.8836 24.1157C23.8834 27.3504 21.2553 29.9784 18.0209 29.9784Z" fill="#F4F6F9"/>
<path d="M20.5129 23.0713H19.0303V20.9485C19.0303 20.3758 18.5922 19.9377 18.0195 19.9377C17.4467 19.9377 17.0086 20.3758 17.0086 20.9485V24.0819C17.0086 24.6547 17.4467 25.0928 18.0195 25.0928H20.5128C21.0856 25.0928 21.5237 24.6547 21.5237 24.0819C21.5237 23.5092 21.0856 23.0713 20.5128 23.0713H20.5129Z" fill="#F4F6F9"/>
</svg>
