<svg width="20" height="18" viewBox="0 0 20 18" fill="none" xmlns="http://www.w3.org/2000/svg">
<path d="M14.4141 9.20038C15.6364 9.20038 16.8087 8.71569 17.673 7.85299C18.5373 6.99028 19.0227 5.82033 19.0227 4.60019C19.0227 3.38022 18.5373 2.2101 17.673 1.3474C16.8087 0.484693 15.6364 0 14.4141 0C13.1919 0 12.0196 0.484693 11.1553 1.3474C10.291 2.2101 9.80542 3.38022 9.80542 4.60019C9.80444 5.82066 10.2895 6.99129 11.1541 7.85428C12.0186 8.71715 13.1915 9.20151 14.4141 9.20038ZM13.7856 2.10772H15.0425V4.26572H17.2295V5.52031H13.7856V2.10772Z" fill="#1589EE"/>
<path d="M19.9252 6.66525C19.433 8.04301 18.4411 9.18637 17.1452 9.8692C15.8494 10.552 14.3439 10.7247 12.9266 10.3531C11.5094 9.98142 10.2832 9.09257 9.49095 7.86201V7.88456L4.45747 7.88472C4.12213 7.88456 3.79466 7.98486 3.5171 8.17256C3.23953 8.36042 3.02481 8.62685 2.90058 8.93774L1.74516 12.1161L0.641595 12.4255H0.641432C0.465825 12.4748 0.311168 12.58 0.200845 12.7251C0.0907028 12.8701 0.030803 13.0472 0.0306396 13.2292V15.3587H0.0348945V17.4497H2.31647C2.56015 16.7979 3.06064 16.2742 3.70136 16.0004C4.34209 15.7265 5.06711 15.7265 5.70784 16.0004C6.34857 16.2742 6.84903 16.7979 7.09274 17.4497H12.8971C13.1408 16.7979 13.6413 16.2742 14.282 16.0004C14.9227 15.7265 15.6478 15.7265 16.2885 16.0004C16.9292 16.2742 17.4297 16.7979 17.6734 17.4497H19.9694V7.03157C19.9682 6.90823 19.9533 6.78538 19.925 6.66531L19.9252 6.66525ZM7.84382 12.4556H3.40276L4.45609 9.55831H7.84139L7.84382 12.4556Z" fill="#1589EE"/>
</svg>

