<svg width="33" height="28" viewBox="0 0 33 28" fill="none" xmlns="http://www.w3.org/2000/svg">
<path fill-rule="evenodd" clip-rule="evenodd" d="M9.50989 9.66951C9.38179 9.67737 9.25725 9.71593 9.14716 9.78188L5.29262 11.9329C5.03643 12.0716 4.87561 12.3385 4.87308 12.6295C4.87054 12.9207 5.02629 13.1903 5.27994 13.3336L9.10941 15.5219H9.10967C9.29382 15.6297 9.51349 15.6596 9.71996 15.6048C9.92644 15.5503 10.1025 15.4156 10.209 15.2307C10.3158 15.0458 10.3442 14.8261 10.2882 14.6202C10.2321 14.4144 10.0961 14.2392 9.91046 14.1339L8.68401 13.4336H15.1667C15.6035 13.4259 15.9538 13.0698 15.9538 12.6333C15.9538 12.1965 15.6035 11.8406 15.1667 11.833H8.77181L9.93559 11.1826C10.2785 11.0106 10.4515 10.6197 10.3475 10.2507C10.2438 9.88133 9.89247 9.63756 9.50998 9.66953L9.50989 9.66951Z" fill="#F4F6F9"/>
<path fill-rule="evenodd" clip-rule="evenodd" d="M11.2372 3.81683C10.8933 3.83738 10.579 4.10422 10.5034 4.44007C10.4278 4.77591 10.5975 5.15183 10.8994 5.31748L12.0507 5.98029H5.80564C5.39092 5.98764 5.01855 6.3661 5.01855 6.78056C5.01855 7.19503 5.39092 7.57375 5.80564 7.58083H12.1006L10.9117 8.28116C10.5479 8.49398 10.411 9.01832 10.6238 9.3815C10.8369 9.745 11.3614 9.88197 11.7252 9.66915L15.4547 7.46814C15.9382 7.18481 15.9306 6.35462 15.4423 6.08014L11.7003 3.92913C11.5093 3.83731 11.3577 3.816 11.2374 3.81651L11.2372 3.81683Z" fill="#F4F6F9"/>
<path fill-rule="evenodd" clip-rule="evenodd" d="M3.5568 0.18191C1.88067 0.18191 0.5 1.55446 0.5 3.23871V23.841C0.504059 24.6232 1.33099 25.2551 1.94333 25.2729H5.38644C5.7479 26.7253 7.06438 27.8183 8.62512 27.8183C10.1749 27.8183 11.4783 26.7217 11.8409 25.2729H20.8748C21.2358 26.7253 22.5497 27.8183 24.1021 27.8183C25.6595 27.8183 26.9654 26.7212 27.3294 25.2729H31.0566C31.9433 25.2764 32.5075 24.7787 32.4999 23.8864C32.5001 20.3572 32.4999 16.8005 32.4999 13.2615C32.4951 12.7664 32.1795 12.4019 31.852 12.1251C31.5654 11.8814 31.2331 11.667 30.8747 11.4547C30.2345 11.0753 29.546 10.7242 29.0793 10.4774L25.9883 5.29543C25.8462 5.05953 25.5819 4.90835 25.3064 4.90911H20.0677V3.2385C20.0677 1.56029 18.7078 0.181702 17.0223 0.181702H3.55585L3.5568 0.18191ZM3.5568 1.78427H17.0232C17.8349 1.78427 18.4666 2.42146 18.4666 3.23871V17.898H2.10269V3.23871C2.10269 2.42753 2.76497 1.78427 3.55712 1.78427H3.5568ZM8.62512 22.7508C9.57987 22.7508 10.3411 23.5242 10.3411 24.4782C10.3411 25.4508 9.57987 26.2168 8.62512 26.2168C7.65335 26.2168 6.8886 25.4485 6.88659 24.4782C6.89826 23.4976 7.64783 22.7508 8.62512 22.7508ZM24.1026 22.7508C25.0756 22.7508 25.8412 23.5242 25.8412 24.4782C25.8412 25.4508 25.0756 26.2168 24.1026 26.2168C23.1479 26.2168 22.3752 25.4507 22.3752 24.4782C22.3752 23.5243 23.1478 22.7508 24.1026 22.7508Z" fill="#F4F6F9"/>
</svg>
