<svg width="49" height="48" viewBox="0 0 49 48" fill="none" xmlns="http://www.w3.org/2000/svg">
<g filter="url(#filter0_d_6021_67632)">
<path fill-rule="evenodd" clip-rule="evenodd" d="M14.5 0C8.97715 0 4.5 4.47715 4.5 10V30C4.5 35.5228 8.97715 40 14.5 40H34.5C40.0228 40 44.5 35.5228 44.5 30V10C44.5 4.47715 40.0228 0 34.5 0H14.5ZM20.9319 17.0668C21.0053 17.0228 21.0883 16.9971 21.1737 16.9918L21.1738 16.9919C21.4288 16.9706 21.663 17.1331 21.7322 17.3793C21.8015 17.6253 21.6862 17.8859 21.4575 18.0006L20.6817 18.4342H24.945C25.2362 18.4393 25.4697 18.6765 25.4697 18.9677C25.4697 19.2587 25.2362 19.4961 24.945 19.5012H20.6232L21.4408 19.9681C21.5646 20.0383 21.6552 20.1551 21.6926 20.2923C21.73 20.4296 21.711 20.576 21.6398 20.6993C21.5688 20.8226 21.4514 20.9124 21.3138 20.9487C21.1761 20.9853 21.0297 20.9653 20.9069 20.8934H20.9068L18.3538 19.4346C18.1847 19.339 18.0808 19.1593 18.0825 18.9651C18.0842 18.7712 18.1914 18.5933 18.3622 18.5008L20.9319 17.0668ZM22.325 13.0898C22.0957 13.1035 21.8862 13.2814 21.8358 13.5053C21.7854 13.7292 21.8985 13.9798 22.0997 14.0903L22.8673 14.5321H18.7039C18.4274 14.537 18.1792 14.7893 18.1792 15.0656C18.1792 15.342 18.4274 15.5944 18.7039 15.5992H22.9006L22.108 16.066C21.8655 16.2079 21.7741 16.5575 21.916 16.7996C22.0581 17.0419 22.4078 17.1332 22.6503 16.9914L25.1366 15.524C25.4589 15.3351 25.4539 14.7817 25.1283 14.5987L22.6337 13.1647C22.5064 13.1035 22.4053 13.0893 22.3251 13.0896L22.325 13.0898ZM15.167 12.7045C15.167 11.5817 16.0874 10.6666 17.2049 10.6666L17.2042 10.6665H26.1818C27.3055 10.6665 28.2121 11.5856 28.2121 12.7044V13.8181H31.7046C31.8883 13.8176 32.0645 13.9184 32.1592 14.0757L34.2199 17.5303C34.2767 17.5604 34.3385 17.5927 34.4041 17.6271C34.6976 17.781 35.0679 17.9751 35.4168 18.1819C35.6557 18.3234 35.8773 18.4663 36.0684 18.6288C36.2867 18.8133 36.497 19.0563 36.5003 19.3864C36.5003 20.1726 36.5003 20.9602 36.5003 21.748C36.5003 23.324 36.5004 24.9009 36.5003 26.4696C36.5053 27.0645 36.1292 27.3963 35.538 27.3939H33.0532C32.8106 28.3595 31.94 29.0909 30.9017 29.0909C29.8668 29.0909 28.9909 28.3622 28.7502 27.3939H22.7276C22.4858 28.3598 21.617 29.0909 20.5837 29.0909C19.5432 29.0909 18.6656 28.3622 18.4246 27.3939H16.1292C15.721 27.3821 15.1697 26.9609 15.167 26.4393V12.7045ZM26.1825 11.7349H17.2051C16.677 11.7349 16.2354 12.1637 16.2354 12.7045V22.4774H27.1447V12.7045C27.1447 12.1597 26.7236 11.7349 26.1825 11.7349ZM21.7277 26.8642C21.7277 26.2282 21.2202 25.7126 20.5837 25.7126C19.9322 25.7126 19.4325 26.2104 19.4247 26.8642C19.4261 27.511 19.9359 28.0232 20.5837 28.0232C21.2202 28.0232 21.7277 27.5126 21.7277 26.8642ZM32.0611 26.8642C32.0611 26.2282 31.5507 25.7126 30.9021 25.7126C30.2655 25.7126 29.7505 26.2282 29.7505 26.8642C29.7505 27.5125 30.2656 28.0232 30.9021 28.0232C31.5507 28.0232 32.0611 27.5126 32.0611 26.8642Z" fill="white"/>
</g>
<defs>
<filter id="filter0_d_6021_67632" x="0.5" y="0" width="48" height="48" filterUnits="userSpaceOnUse" color-interpolation-filters="sRGB">
<feFlood flood-opacity="0" result="BackgroundImageFix"/>
<feColorMatrix in="SourceAlpha" type="matrix" values="0 0 0 0 0 0 0 0 0 0 0 0 0 0 0 0 0 0 127 0" result="hardAlpha"/>
<feOffset dy="4"/>
<feGaussianBlur stdDeviation="2"/>
<feComposite in2="hardAlpha" operator="out"/>
<feColorMatrix type="matrix" values="0 0 0 0 0 0 0 0 0 0 0 0 0 0 0 0 0 0 0.25 0"/>
<feBlend mode="normal" in2="BackgroundImageFix" result="effect1_dropShadow_6021_67632"/>
<feBlend mode="normal" in="SourceGraphic" in2="effect1_dropShadow_6021_67632" result="shape"/>
</filter>
</defs>
</svg>
