<svg width="179" height="73" viewBox="0 0 179 73" fill="none" xmlns="http://www.w3.org/2000/svg">
<path d="M14.2369 44.1066H39.7103V54.2382H1V3.96122H14.2369V44.1066Z" fill="#3E3E3C"/>
<path d="M62.6981 15.3878C66.7513 15.3878 70.2914 16.175 73.3184 17.7493C76.3968 19.3236 78.7825 21.5836 80.4756 24.5291C82.22 27.4746 83.0922 31.0295 83.0922 35.1939C83.0922 39.3583 82.22 42.9132 80.4756 45.8587C78.7825 48.8042 76.3968 51.0642 73.3184 52.6385C70.2914 54.2128 66.7513 55 62.6981 55C58.6962 55 55.1561 54.2128 52.0778 52.6385C49.0507 51.0642 46.665 48.8042 44.9206 45.8587C43.2275 42.9132 42.381 39.3583 42.381 35.1939C42.381 31.0295 43.2275 27.4746 44.9206 24.5291C46.665 21.5836 49.0507 19.3236 52.0778 17.7493C55.1561 16.175 58.6962 15.3878 62.6981 15.3878ZM62.6981 24.6053C60.4406 24.6053 58.6706 25.4432 57.3879 27.1191C56.1566 28.7442 55.5409 31.4358 55.5409 35.1939C55.5409 38.9012 56.1566 41.5928 57.3879 43.2687C58.6706 44.9446 60.4406 45.7825 62.6981 45.7825C65.0069 45.7825 66.7769 44.9446 68.0083 43.2687C69.2909 41.5928 69.9322 38.9012 69.9322 35.1939C69.9322 31.4358 69.2909 28.7442 68.0083 27.1191C66.7769 25.4432 65.0069 24.6053 62.6981 24.6053Z" fill="#3E3E3C"/>
<path d="M103.073 55C98.3018 55 94.4538 53.2733 91.5294 49.8199C88.6562 46.3666 87.2197 41.542 87.2197 35.3463C87.2197 31.0803 87.8867 27.4746 89.2206 24.5291C90.6059 21.5328 92.5042 19.2729 94.9156 17.7493C97.3783 16.175 100.2 15.3878 103.381 15.3878C106.1 15.3878 108.409 16.048 110.307 17.3684C112.257 18.6888 113.719 20.4409 114.694 22.6247V0H127.777V54.2382H116.079L115.617 46.7729C114.54 49.3121 112.898 51.3181 110.692 52.7909C108.537 54.2636 105.998 55 103.073 55ZM107.614 45.4778C109.769 45.4778 111.487 44.5891 112.77 42.8116C114.053 41.0342 114.694 38.4187 114.694 34.9654C114.694 31.7659 114.078 29.3029 112.847 27.5762C111.616 25.7987 109.897 24.91 107.691 24.91C105.433 24.91 103.638 25.7479 102.304 27.4238C101.021 29.0489 100.38 31.639 100.38 35.1939C100.38 38.7488 101.021 41.3643 102.304 43.0402C103.586 44.6653 105.356 45.4778 107.614 45.4778Z" fill="#3E3E3C"/>
<path d="M179 54.1539H162.015L151.741 36.841L141.799 54.1539H125.643L144.202 26.9128L126.72 0H143.539L152.901 16.5744L162.347 0H177.84L160.358 26.5026L179 54.1539Z" fill="#005FB2"/>
<path d="M5.60587 64.7068H3.59464V70.5853H2.0014V64.7068H0V63.3865H5.60587V64.7068Z" fill="#706E6B"/>
<path d="M9.16246 66.8755C8.9756 66.7718 8.7576 66.7199 8.50844 66.7199C8.17078 66.7199 7.90688 66.8471 7.71674 67.1014C7.5266 67.3524 7.43153 67.6954 7.43153 68.1305V70.5853H5.87762V65.4448H7.43153V66.3986H7.4512C7.69707 65.7025 8.13964 65.3544 8.7789 65.3544C8.94282 65.3544 9.07067 65.3745 9.16246 65.4147V66.8755Z" fill="#706E6B"/>
<path d="M14.3123 70.5853H12.842V69.8474H12.8223C12.4847 70.423 11.9847 70.7108 11.3225 70.7108C10.834 70.7108 10.4488 70.5703 10.1669 70.2892C9.88825 70.0047 9.74892 69.6265 9.74892 69.1546C9.74892 68.1573 10.3275 67.5817 11.4848 67.4277L12.8518 67.242C12.8518 66.6797 12.5535 66.3986 11.9569 66.3986C11.3569 66.3986 10.7865 66.581 10.2456 66.9458V65.751C10.462 65.6372 10.757 65.5368 11.1307 65.4498C11.5077 65.3628 11.8503 65.3193 12.1585 65.3193C13.5944 65.3193 14.3123 66.0505 14.3123 67.5131V70.5853ZM12.8518 68.497V68.1506L11.9372 68.2711C11.4323 68.338 11.1799 68.5706 11.1799 68.9689C11.1799 69.1496 11.2405 69.2985 11.3618 69.4157C11.4864 69.5295 11.6536 69.5863 11.8634 69.5863C12.1552 69.5863 12.3929 69.4843 12.5764 69.2801C12.76 69.0726 12.8518 68.8116 12.8518 68.497Z" fill="#706E6B"/>
<path d="M20.6374 70.5853H19.0884V67.7289C19.0884 66.9324 18.8098 66.5341 18.2525 66.5341C17.9836 66.5341 17.7623 66.6396 17.5886 66.8504C17.4148 67.0612 17.328 67.329 17.328 67.6536V70.5853H15.7741V65.4448H17.328V66.258H17.3476C17.7181 65.6322 18.2574 65.3193 18.9655 65.3193C20.0801 65.3193 20.6374 66.0254 20.6374 67.4378V70.5853Z" fill="#706E6B"/>
<path d="M21.7746 70.4498V69.1647C22.0303 69.322 22.2844 69.4391 22.5368 69.5161C22.7925 69.593 23.0335 69.6315 23.2597 69.6315C23.5351 69.6315 23.7514 69.593 23.9088 69.5161C24.0694 69.4391 24.1497 69.322 24.1497 69.1647C24.1497 69.0643 24.1137 68.9806 24.0416 68.9137C23.9694 68.8467 23.876 68.7882 23.7613 68.738C23.6498 68.6878 23.5269 68.6426 23.3925 68.6024C23.258 68.5622 23.1286 68.5171 23.004 68.4669C22.804 68.3899 22.627 68.3079 22.4729 68.2209C22.3221 68.1305 22.1942 68.0268 22.0893 67.9096C21.9877 67.7925 21.909 67.657 21.8533 67.503C21.8008 67.3491 21.7746 67.1667 21.7746 66.9558C21.7746 66.668 21.8353 66.4203 21.9566 66.2129C22.0811 66.0054 22.2451 65.8363 22.4483 65.7058C22.6548 65.572 22.8892 65.4749 23.1515 65.4147C23.417 65.3511 23.6924 65.3193 23.9776 65.3193C24.2006 65.3193 24.4268 65.3377 24.6562 65.3745C24.8857 65.408 25.1119 65.4582 25.3348 65.5251V66.75C25.1381 66.6329 24.9267 66.5459 24.7005 66.489C24.4776 66.4287 24.2579 66.3986 24.0416 66.3986C23.9399 66.3986 23.8432 66.4086 23.7514 66.4287C23.6629 66.4454 23.5842 66.4722 23.5154 66.509C23.4465 66.5425 23.3925 66.5877 23.3531 66.6446C23.3138 66.6981 23.2941 66.76 23.2941 66.8303C23.2941 66.924 23.3236 67.0044 23.3826 67.0713C23.4416 67.1382 23.5187 67.1968 23.6137 67.247C23.7088 67.2938 23.8137 67.3373 23.9285 67.3775C24.0465 67.4143 24.1629 67.4528 24.2776 67.493C24.4841 67.5666 24.671 67.6469 24.8382 67.7339C25.0054 67.821 25.148 67.923 25.266 68.0402C25.3873 68.1573 25.4791 68.2945 25.5414 68.4518C25.6069 68.6091 25.6397 68.7965 25.6397 69.0141C25.6397 69.3186 25.5742 69.5797 25.443 69.7972C25.3152 70.0114 25.1431 70.1871 24.9267 70.3243C24.7136 70.4582 24.4661 70.5552 24.1842 70.6155C23.9055 70.679 23.6154 70.7108 23.3138 70.7108C22.7597 70.7108 22.2467 70.6238 21.7746 70.4498Z" fill="#706E6B"/>
<path d="M28.3456 69.988H28.3259V72.9498H26.772V65.4448H28.3259V66.2179H28.3456C28.7292 65.6188 29.2684 65.3193 29.9634 65.3193C30.6158 65.3193 31.119 65.5485 31.4731 66.007C31.8304 66.4622 32.0091 67.083 32.0091 67.8695C32.0091 68.7262 31.8009 69.414 31.3846 69.9327C30.9715 70.4515 30.4208 70.7108 29.7323 70.7108C29.1258 70.7108 28.6636 70.4699 28.3456 69.988ZM28.3013 67.8795V68.2912C28.3013 68.6459 28.3931 68.9354 28.5767 69.1596C28.7603 69.3839 29.0013 69.496 29.2996 69.496C29.6536 69.496 29.9274 69.3571 30.1208 69.0793C30.3175 68.7982 30.4158 68.4016 30.4158 67.8896C30.4158 66.9859 30.0716 66.5341 29.3832 66.5341C29.0652 66.5341 28.8046 66.658 28.6013 66.9056C28.4013 67.1499 28.3013 67.4746 28.3013 67.8795Z" fill="#706E6B"/>
<path d="M35.6493 70.7108C34.81 70.7108 34.1495 70.4716 33.6675 69.993C33.1889 69.511 32.9496 68.8584 32.9496 68.0351C32.9496 67.1851 33.1987 66.5207 33.697 66.0422C34.1953 65.5602 34.869 65.3193 35.7181 65.3193C36.5541 65.3193 37.2097 65.5602 37.6851 66.0422C38.1604 66.5207 38.3981 67.155 38.3981 67.9448C38.3981 68.7982 38.1522 69.4726 37.6605 69.9679C37.172 70.4632 36.5016 70.7108 35.6493 70.7108ZM35.6886 66.5341C35.3214 66.5341 35.0362 66.663 34.833 66.9207C34.6297 67.1784 34.5281 67.5432 34.5281 68.0151C34.5281 69.0023 34.9182 69.496 35.6984 69.496C36.4426 69.496 36.8147 68.989 36.8147 67.9749C36.8147 67.0144 36.4393 66.5341 35.6886 66.5341Z" fill="#706E6B"/>
<path d="M42.9234 66.8755C42.7366 66.7718 42.5186 66.7199 42.2694 66.7199C41.9318 66.7199 41.6679 66.8471 41.4777 67.1014C41.2876 67.3524 41.1925 67.6954 41.1925 68.1305V70.5853H39.6386V65.4448H41.1925V66.3986H41.2122C41.458 65.7025 41.9006 65.3544 42.5399 65.3544C42.7038 65.3544 42.8316 65.3745 42.9234 65.4147V66.8755Z" fill="#706E6B"/>
<path d="M47.2226 70.5251C46.9931 70.6489 46.6472 70.7108 46.185 70.7108C45.09 70.7108 44.5426 70.1302 44.5426 68.9689V66.6145H43.7263V65.4448H44.5426V64.3353L46.0916 63.8835V65.4448H47.2226V66.6145H46.0916V68.6928C46.0916 69.2282 46.2997 69.496 46.7161 69.496C46.88 69.496 47.0488 69.4475 47.2226 69.3504V70.5251Z" fill="#706E6B"/>
<path d="M52.5248 70.5853H51.0545V69.8474H51.0349C50.6972 70.423 50.1973 70.7108 49.535 70.7108C49.0466 70.7108 48.6614 70.5703 48.3794 70.2892C48.1008 70.0047 47.9615 69.6265 47.9615 69.1546C47.9615 68.1573 48.5401 67.5817 49.6973 67.4277L51.0644 67.242C51.0644 66.6797 50.766 66.3986 50.1694 66.3986C49.5695 66.3986 48.999 66.581 48.4581 66.9458V65.751C48.6745 65.6372 48.9695 65.5368 49.3433 65.4498C49.7203 65.3628 50.0628 65.3193 50.371 65.3193C51.8069 65.3193 52.5248 66.0505 52.5248 67.5131V70.5853ZM51.0644 68.497V68.1506L50.1497 68.2711C49.6449 68.338 49.3924 68.5706 49.3924 68.9689C49.3924 69.1496 49.4531 69.2985 49.5744 69.4157C49.699 69.5295 49.8661 69.5863 50.076 69.5863C50.3677 69.5863 50.6054 69.4843 50.789 69.2801C50.9726 69.0726 51.0644 68.8116 51.0644 68.497Z" fill="#706E6B"/>
<path d="M57.0305 70.5251C56.801 70.6489 56.4552 70.7108 55.9929 70.7108C54.898 70.7108 54.3505 70.1302 54.3505 68.9689V66.6145H53.5342V65.4448H54.3505V64.3353L55.8995 63.8835V65.4448H57.0305V66.6145H55.8995V68.6928C55.8995 69.2282 56.1077 69.496 56.524 69.496C56.6879 69.496 56.8567 69.4475 57.0305 69.3504V70.5251Z" fill="#706E6B"/>
<path d="M58.9299 64.6315C58.6676 64.6315 58.4529 64.5529 58.2857 64.3956C58.1185 64.2349 58.0349 64.0392 58.0349 63.8082C58.0349 63.5706 58.1185 63.3765 58.2857 63.2259C58.4529 63.0753 58.6676 63 58.9299 63C59.1955 63 59.4102 63.0753 59.5741 63.2259C59.7413 63.3765 59.8249 63.5706 59.8249 63.8082C59.8249 64.0492 59.7413 64.2467 59.5741 64.4006C59.4102 64.5546 59.1955 64.6315 58.9299 64.6315ZM59.697 70.5853H58.1431V65.4448H59.697V70.5853Z" fill="#706E6B"/>
<path d="M63.6372 70.7108C62.7979 70.7108 62.1374 70.4716 61.6555 69.993C61.1768 69.511 60.9375 68.8584 60.9375 68.0351C60.9375 67.1851 61.1867 66.5207 61.685 66.0422C62.1833 65.5602 62.8569 65.3193 63.706 65.3193C64.542 65.3193 65.1976 65.5602 65.673 66.0422C66.1483 66.5207 66.386 67.155 66.386 67.9448C66.386 68.7982 66.1402 69.4726 65.6484 69.9679C65.1599 70.4632 64.4895 70.7108 63.6372 70.7108ZM63.6765 66.5341C63.3093 66.5341 63.0241 66.663 62.8209 66.9207C62.6176 67.1784 62.516 67.5432 62.516 68.0151C62.516 69.0023 62.9061 69.496 63.6864 69.496C64.4305 69.496 64.8026 68.989 64.8026 67.9749C64.8026 67.0144 64.4272 66.5341 63.6765 66.5341Z" fill="#706E6B"/>
<path d="M72.4898 70.5853H70.9408V67.7289C70.9408 66.9324 70.6622 66.5341 70.1049 66.5341C69.8361 66.5341 69.6148 66.6396 69.441 66.8504C69.2673 67.0612 69.1804 67.329 69.1804 67.6536V70.5853H67.6265V65.4448H69.1804V66.258H69.2001C69.5705 65.6322 70.1098 65.3193 70.8179 65.3193C71.9325 65.3193 72.4898 66.0254 72.4898 67.4378V70.5853Z" fill="#706E6B"/>
<path d="M85.1597 70.5853H83.5911V66.2781C83.5911 65.8129 83.6107 65.2992 83.6501 64.7369H83.6107C83.5288 65.1787 83.455 65.4967 83.3894 65.6908L81.7372 70.5853H80.439L78.7572 65.741C78.7113 65.6104 78.6376 65.2758 78.5359 64.7369H78.4917C78.5343 65.4465 78.5556 66.0689 78.5556 66.6044V70.5853H77.1246V63.3865H79.4506L80.8914 67.6536C81.0061 67.995 81.0897 68.338 81.1422 68.6827H81.1717C81.2602 68.2845 81.3536 67.9381 81.452 67.6436L82.8928 63.3865H85.1597V70.5853Z" fill="#706E6B"/>
<path d="M91.0324 70.5853H89.5621V69.8474H89.5424C89.2048 70.423 88.7048 70.7108 88.0426 70.7108C87.5542 70.7108 87.169 70.5703 86.887 70.2892C86.6084 70.0047 86.469 69.6265 86.469 69.1546C86.469 68.1573 87.0477 67.5817 88.2049 67.4277L89.5719 67.242C89.5719 66.6797 89.2736 66.3986 88.677 66.3986C88.077 66.3986 87.5066 66.581 86.9657 66.9458V65.751C87.1821 65.6372 87.4771 65.5368 87.8508 65.4498C88.2279 65.3628 88.5704 65.3193 88.8786 65.3193C90.3145 65.3193 91.0324 66.0505 91.0324 67.5131V70.5853ZM89.5719 68.497V68.1506L88.6573 68.2711C88.1525 68.338 87.9 68.5706 87.9 68.9689C87.9 69.1496 87.9607 69.2985 88.082 69.4157C88.2065 69.5295 88.3737 69.5863 88.5835 69.5863C88.8753 69.5863 89.113 69.4843 89.2966 69.2801C89.4802 69.0726 89.5719 68.8116 89.5719 68.497Z" fill="#706E6B"/>
<path d="M97.3575 70.5853H95.8085V67.7289C95.8085 66.9324 95.5299 66.5341 94.9726 66.5341C94.7038 66.5341 94.4825 66.6396 94.3087 66.8504C94.135 67.0612 94.0481 67.329 94.0481 67.6536V70.5853H92.4942V65.4448H94.0481V66.258H94.0678C94.4382 65.6322 94.9775 65.3193 95.6856 65.3193C96.8002 65.3193 97.3575 66.0254 97.3575 67.4378V70.5853Z" fill="#706E6B"/>
<path d="M103.014 70.5853H101.544V69.8474H101.524C101.186 70.423 100.686 70.7108 100.024 70.7108C99.5356 70.7108 99.1504 70.5703 98.8685 70.2892C98.5898 70.0047 98.4505 69.6265 98.4505 69.1546C98.4505 68.1573 99.0291 67.5817 100.186 67.4277L101.553 67.242C101.553 66.6797 101.255 66.3986 100.658 66.3986C100.058 66.3986 99.4881 66.581 98.9471 66.9458V65.751C99.1635 65.6372 99.4585 65.5368 99.8323 65.4498C100.209 65.3628 100.552 65.3193 100.86 65.3193C102.296 65.3193 103.014 66.0505 103.014 67.5131V70.5853ZM101.553 68.497V68.1506L100.639 68.2711C100.134 68.338 99.8815 68.5706 99.8815 68.9689C99.8815 69.1496 99.9421 69.2985 100.063 69.4157C100.188 69.5295 100.355 69.5863 100.565 69.5863C100.857 69.5863 101.094 69.4843 101.278 69.2801C101.462 69.0726 101.553 68.8116 101.553 68.497Z" fill="#706E6B"/>
<path d="M109.413 69.998C109.413 70.9518 109.142 71.6898 108.601 72.2118C108.06 72.7373 107.277 73 106.251 73C105.572 73 105.035 72.9013 104.638 72.7038V71.3685C105.156 71.6764 105.679 71.8303 106.207 71.8303C106.731 71.8303 107.138 71.6881 107.426 71.4036C107.715 71.1225 107.859 70.7393 107.859 70.254V69.8474H107.839C107.485 70.423 106.962 70.7108 106.27 70.7108C105.628 70.7108 105.118 70.4799 104.741 70.0181C104.364 69.5562 104.176 68.9371 104.176 68.1606C104.176 67.2905 104.385 66.5994 104.805 66.0873C105.225 65.5753 105.777 65.3193 106.462 65.3193C107.075 65.3193 107.534 65.5602 107.839 66.0422H107.859V65.4448H109.413V69.998ZM107.878 68.1155V67.7088C107.878 67.3842 107.783 67.1081 107.593 66.8805C107.406 66.6496 107.162 66.5341 106.861 66.5341C106.516 66.5341 106.246 66.6714 106.049 66.9458C105.853 67.2202 105.754 67.6068 105.754 68.1054C105.754 68.5338 105.848 68.8735 106.034 69.1245C106.221 69.3722 106.477 69.496 106.802 69.496C107.123 69.496 107.382 69.3705 107.579 69.1195C107.778 68.8651 107.878 68.5305 107.878 68.1155Z" fill="#706E6B"/>
<path d="M115.467 68.4669H112.183C112.235 69.2132 112.696 69.5863 113.564 69.5863C114.118 69.5863 114.605 69.4525 115.025 69.1847V70.3293C114.559 70.5837 113.954 70.7108 113.21 70.7108C112.397 70.7108 111.766 70.4816 111.317 70.0231C110.868 69.5612 110.643 68.9187 110.643 68.0954C110.643 67.242 110.886 66.5659 111.371 66.0673C111.856 65.5686 112.453 65.3193 113.161 65.3193C113.895 65.3193 114.463 65.5418 114.863 65.9869C115.266 66.4321 115.467 67.0361 115.467 67.7992V68.4669ZM114.027 67.493C114.027 66.7567 113.735 66.3886 113.151 66.3886C112.902 66.3886 112.686 66.494 112.502 66.7048C112.322 66.9157 112.212 67.1784 112.173 67.493H114.027Z" fill="#706E6B"/>
<path d="M124.62 70.5853H123.071V67.6536C123.071 66.9073 122.802 66.5341 122.265 66.5341C122.009 66.5341 121.801 66.6463 121.64 66.8705C121.479 67.0947 121.399 67.3742 121.399 67.7088V70.5853H119.845V67.6235C119.845 66.8973 119.581 66.5341 119.053 66.5341C118.788 66.5341 118.575 66.6412 118.414 66.8554C118.257 67.0696 118.178 67.3608 118.178 67.7289V70.5853H116.624V65.4448H118.178V66.248H118.198C118.358 65.9736 118.583 65.751 118.872 65.5803C119.163 65.4063 119.481 65.3193 119.826 65.3193C120.537 65.3193 121.024 65.6389 121.286 66.2781C121.67 65.6389 122.233 65.3193 122.978 65.3193C124.073 65.3193 124.62 66.0087 124.62 67.3875V70.5853Z" fill="#706E6B"/>
<path d="M130.606 68.4669H127.321C127.373 69.2132 127.834 69.5863 128.703 69.5863C129.257 69.5863 129.744 69.4525 130.163 69.1847V70.3293C129.698 70.5837 129.093 70.7108 128.349 70.7108C127.536 70.7108 126.905 70.4816 126.455 70.0231C126.006 69.5612 125.782 68.9187 125.782 68.0954C125.782 67.242 126.024 66.5659 126.51 66.0673C126.995 65.5686 127.591 65.3193 128.3 65.3193C129.034 65.3193 129.601 65.5418 130.001 65.9869C130.404 66.4321 130.606 67.0361 130.606 67.7992V68.4669ZM129.165 67.493C129.165 66.7567 128.873 66.3886 128.29 66.3886C128.041 66.3886 127.824 66.494 127.641 66.7048C127.46 66.9157 127.35 67.1784 127.311 67.493H129.165Z" fill="#706E6B"/>
<path d="M136.626 70.5853H135.077V67.7289C135.077 66.9324 134.798 66.5341 134.241 66.5341C133.972 66.5341 133.751 66.6396 133.577 66.8504C133.403 67.0612 133.317 67.329 133.317 67.6536V70.5853H131.763V65.4448H133.317V66.258H133.336C133.707 65.6322 134.246 65.3193 134.954 65.3193C136.069 65.3193 136.626 66.0254 136.626 67.4378V70.5853Z" fill="#706E6B"/>
<path d="M141.137 70.5251C140.907 70.6489 140.561 70.7108 140.099 70.7108C139.004 70.7108 138.457 70.1302 138.457 68.9689V66.6145H137.64V65.4448H138.457V64.3353L140.006 63.8835V65.4448H141.137V66.6145H140.006V68.6928C140.006 69.2282 140.214 69.496 140.63 69.496C140.794 69.496 140.963 69.4475 141.137 69.3504V70.5251Z" fill="#706E6B"/>
<path d="M145.093 70.3092V68.7028C145.378 68.9471 145.688 69.1312 146.022 69.255C146.357 69.3755 146.694 69.4357 147.035 69.4357C147.235 69.4357 147.409 69.4173 147.556 69.3805C147.707 69.3437 147.832 69.2935 147.93 69.2299C148.032 69.163 148.107 69.086 148.156 68.999C148.206 68.9086 148.23 68.8116 148.23 68.7078C148.23 68.5673 148.191 68.4418 148.112 68.3313C148.033 68.2209 147.925 68.1188 147.788 68.0251C147.653 67.9314 147.492 67.841 147.306 67.754C147.119 67.667 146.917 67.5783 146.701 67.488C146.15 67.2537 145.739 66.9675 145.467 66.6295C145.198 66.2915 145.063 65.8832 145.063 65.4046C145.063 65.0298 145.137 64.7085 145.285 64.4408C145.432 64.1697 145.632 63.9471 145.884 63.7731C146.14 63.5991 146.435 63.4719 146.77 63.3916C147.104 63.3079 147.458 63.2661 147.832 63.2661C148.199 63.2661 148.524 63.2895 148.805 63.3363C149.091 63.3799 149.353 63.4485 149.592 63.5422V65.0432C149.474 64.9595 149.345 64.8859 149.204 64.8223C149.066 64.7587 148.923 64.7068 148.776 64.6667C148.628 64.6232 148.481 64.5914 148.333 64.5713C148.189 64.5512 148.051 64.5412 147.92 64.5412C147.74 64.5412 147.576 64.5596 147.429 64.5964C147.281 64.6299 147.156 64.6784 147.055 64.742C146.953 64.8056 146.875 64.8825 146.819 64.9729C146.763 65.0599 146.735 65.1586 146.735 65.2691C146.735 65.3896 146.766 65.4983 146.829 65.5954C146.891 65.6891 146.979 65.7795 147.094 65.8665C147.209 65.9501 147.348 66.0338 147.512 66.1175C147.676 66.1978 147.861 66.2815 148.068 66.3685C148.35 66.489 148.602 66.6178 148.825 66.755C149.051 66.8889 149.245 67.0412 149.405 67.2118C149.566 67.3825 149.689 67.5783 149.774 67.7992C149.859 68.0167 149.902 68.2711 149.902 68.5622C149.902 68.9639 149.827 69.3019 149.676 69.5763C149.528 69.8474 149.327 70.0683 149.071 70.239C148.815 70.4063 148.517 70.5268 148.176 70.6004C147.838 70.674 147.481 70.7108 147.104 70.7108C146.717 70.7108 146.348 70.6774 145.998 70.6104C145.65 70.5435 145.348 70.4431 145.093 70.3092Z" fill="#706E6B"/>
<path d="M155.681 65.4448L153.636 70.997C153.144 72.3323 152.403 73 151.413 73C151.036 73 150.726 72.9565 150.484 72.8695V71.6044C150.69 71.7282 150.915 71.7902 151.157 71.7902C151.557 71.7902 151.836 71.5977 151.993 71.2129L152.259 70.5753L150.213 65.4448H151.934L152.873 68.5723C152.932 68.7664 152.978 68.9956 153.011 69.26H153.031C153.06 69.0659 153.114 68.84 153.193 68.5823L154.142 65.4448H155.681Z" fill="#706E6B"/>
<path d="M156.209 70.4498V69.1647C156.464 69.322 156.719 69.4391 156.971 69.5161C157.227 69.593 157.468 69.6315 157.694 69.6315C157.969 69.6315 158.186 69.593 158.343 69.5161C158.504 69.4391 158.584 69.322 158.584 69.1647C158.584 69.0643 158.548 68.9806 158.476 68.9137C158.404 68.8467 158.31 68.7882 158.195 68.738C158.084 68.6878 157.961 68.6426 157.827 68.6024C157.692 68.5622 157.563 68.5171 157.438 68.4669C157.238 68.3899 157.061 68.3079 156.907 68.2209C156.756 68.1305 156.628 68.0268 156.523 67.9096C156.422 67.7925 156.343 67.657 156.287 67.503C156.235 67.3491 156.209 67.1667 156.209 66.9558C156.209 66.668 156.269 66.4203 156.391 66.2129C156.515 66.0054 156.679 65.8363 156.882 65.7058C157.089 65.572 157.323 65.4749 157.586 65.4147C157.851 65.3511 158.127 65.3193 158.412 65.3193C158.635 65.3193 158.861 65.3377 159.09 65.3745C159.32 65.408 159.546 65.4582 159.769 65.5251V66.75C159.572 66.6329 159.361 66.5459 159.135 66.489C158.912 66.4287 158.692 66.3986 158.476 66.3986C158.374 66.3986 158.277 66.4086 158.186 66.4287C158.097 66.4454 158.018 66.4722 157.95 66.509C157.881 66.5425 157.827 66.5877 157.787 66.6446C157.748 66.6981 157.728 66.76 157.728 66.8303C157.728 66.924 157.758 67.0044 157.817 67.0713C157.876 67.1382 157.953 67.1968 158.048 67.247C158.143 67.2938 158.248 67.3373 158.363 67.3775C158.481 67.4143 158.597 67.4528 158.712 67.493C158.918 67.5666 159.105 67.6469 159.272 67.7339C159.439 67.821 159.582 67.923 159.7 68.0402C159.821 68.1573 159.913 68.2945 159.976 68.4518C160.041 68.6091 160.074 68.7965 160.074 69.0141C160.074 69.3186 160.008 69.5797 159.877 69.7972C159.749 70.0114 159.577 70.1871 159.361 70.3243C159.148 70.4582 158.9 70.5552 158.618 70.6155C158.34 70.679 158.05 70.7108 157.748 70.7108C157.194 70.7108 156.681 70.6238 156.209 70.4498Z" fill="#706E6B"/>
<path d="M164.25 70.5251C164.021 70.6489 163.675 70.7108 163.212 70.7108C162.118 70.7108 161.57 70.1302 161.57 68.9689V66.6145H160.754V65.4448H161.57V64.3353L163.119 63.8835V65.4448H164.25V66.6145H163.119V68.6928C163.119 69.2282 163.327 69.496 163.744 69.496C163.907 69.496 164.076 69.4475 164.25 69.3504V70.5251Z" fill="#706E6B"/>
<path d="M169.847 68.4669H166.563C166.615 69.2132 167.076 69.5863 167.944 69.5863C168.498 69.5863 168.985 69.4525 169.405 69.1847V70.3293C168.939 70.5837 168.334 70.7108 167.59 70.7108C166.777 70.7108 166.146 70.4816 165.697 70.0231C165.248 69.5612 165.023 68.9187 165.023 68.0954C165.023 67.242 165.266 66.5659 165.751 66.0673C166.236 65.5686 166.833 65.3193 167.541 65.3193C168.275 65.3193 168.843 65.5418 169.243 65.9869C169.646 66.4321 169.847 67.0361 169.847 67.7992V68.4669ZM168.407 67.493C168.407 66.7567 168.115 66.3886 167.531 66.3886C167.282 66.3886 167.066 66.494 166.882 66.7048C166.702 66.9157 166.592 67.1784 166.553 67.493H168.407Z" fill="#706E6B"/>
<path d="M179 70.5853H177.451V67.6536C177.451 66.9073 177.182 66.5341 176.645 66.5341C176.389 66.5341 176.181 66.6463 176.02 66.8705C175.859 67.0947 175.779 67.3742 175.779 67.7088V70.5853H174.225V67.6235C174.225 66.8973 173.961 66.5341 173.433 66.5341C173.168 66.5341 172.955 66.6412 172.794 66.8554C172.637 67.0696 172.558 67.3608 172.558 67.7289V70.5853H171.004V65.4448H172.558V66.248H172.578C172.738 65.9736 172.963 65.751 173.252 65.5803C173.543 65.4063 173.861 65.3193 174.206 65.3193C174.917 65.3193 175.404 65.6389 175.666 66.2781C176.05 65.6389 176.613 65.3193 177.358 65.3193C178.453 65.3193 179 66.0087 179 67.3875V70.5853Z" fill="#706E6B"/>
</svg>
