<svg width="18" height="20" viewBox="0 0 18 20" fill="none" xmlns="http://www.w3.org/2000/svg">
<path d="M16.9067 0.00108644C16.8334 0.00517847 16.7567 0.0210128 16.6756 0.0409392L10.7691 1.49167C10.1196 1.65126 9.54974 2.37308 9.54974 3.04593V5.77195L11.7975 8.03554L13.0888 9.32686C13.4664 9.70475 13.4651 10.3202 13.0888 10.6979L11.8054 11.9888L9.54979 14.2524V16.9624C9.54979 17.6353 10.1197 18.3571 10.7692 18.5167L16.6756 19.9674C16.7574 19.9875 16.8343 19.9968 16.9067 19.9993C17.4179 20.0174 17.7516 19.703 17.7516 19.1145V0.893798C17.7516 0.557363 17.6342 0.314498 17.4488 0.168432C17.3561 0.0953082 17.2424 0.0412224 17.114 0.0170283C17.0498 0.00493041 16.98 -0.00289798 16.9067 0.00101625L16.9067 0.00108644ZM7.613 4.8235C7.51461 4.8235 7.41925 4.85766 7.34204 4.93505L6.05873 6.22637C5.9043 6.38133 5.9043 6.62152 6.05873 6.77629L7.48542 8.20298C7.57028 8.28677 7.59608 8.41345 7.55053 8.52376C7.50499 8.63389 7.39735 8.70558 7.27814 8.70505H0.638903C0.421493 8.70505 0.248383 8.87567 0.248383 9.09557V10.9208C0.248383 11.1407 0.421493 11.3033 0.638903 11.3033H7.29409V11.3035C7.41329 11.3029 7.52093 11.3748 7.56647 11.4849C7.61184 11.5951 7.58622 11.7219 7.50136 11.8057L6.05864 13.2484C5.90421 13.4034 5.90421 13.6436 6.05864 13.7984L7.34194 15.0895C7.49531 15.2434 7.71147 15.2274 7.91592 15.0655L11.3831 11.5745L12.6744 10.2912C12.829 10.1359 12.8292 9.8962 12.6744 9.74125L11.383 8.44993L7.88394 4.93487C7.80708 4.85766 7.71136 4.82332 7.61298 4.82332L7.613 4.8235Z" fill="#969492"/>
</svg>
