<svg width="414" height="276" viewBox="0 0 414 276" fill="none" xmlns="http://www.w3.org/2000/svg">
<path d="M83.49 175.26L145.935 124.2L191.475 161.46" stroke="#C2E8FF" stroke-width="3" stroke-linecap="round" stroke-linejoin="round"/>
<path d="M179.4 149.73L194.235 137.31L240.81 175.26" stroke="#C2E8FF" stroke-width="3" stroke-linecap="round" stroke-linejoin="round"/>
<path fill-rule="evenodd" clip-rule="evenodd" d="M73.027 162.028C73.4705 160.571 74.1891 160.57 74.633 162.028L78.66 175.26H69L73.027 162.028Z" fill="#C2E8FF"/>
<path fill-rule="evenodd" clip-rule="evenodd" d="M79.3293 166.885C79.7218 165.413 80.3593 165.417 80.7508 166.885L82.8 174.57H77.28L79.3293 166.885Z" fill="#C2E8FF"/>
<path fill-rule="evenodd" clip-rule="evenodd" d="M234.417 163.226C234.899 161.779 235.64 161.795 236.069 163.253L238.74 172.336L232.53 168.886L234.417 163.226Z" fill="#C2E8FF"/>
<path fill-rule="evenodd" clip-rule="evenodd" d="M240.421 161.358C240.01 159.89 239.342 159.895 238.933 161.356L235.98 171.903L244.507 175.95L240.421 161.358Z" fill="#C2E8FF"/>
<path fill-rule="evenodd" clip-rule="evenodd" d="M350.466 162.047C350.877 160.58 351.542 160.576 351.954 162.047L356.04 176.64H346.38L350.466 162.047Z" fill="#C2E8FF"/>
<path fill-rule="evenodd" clip-rule="evenodd" d="M270.786 166.453C271.115 165.22 271.648 165.219 271.977 166.454L273.24 171.19L268.621 174.57L270.786 166.453Z" fill="#C2E8FF"/>
<path d="M347.07 174.57L314.985 149.04L292.215 167.67" stroke="#C2E8FF" stroke-width="3" stroke-linecap="round" stroke-linejoin="round"/>
<path d="M298.77 160.77L292.215 155.25L268.41 175.26" stroke="#C2E8FF" stroke-width="3" stroke-linecap="round" stroke-linejoin="round"/>
<path d="M57.27 175.605H367.77" stroke="#8CD3F8" stroke-width="3" stroke-linecap="round"/>
<path d="M260.13 175.95L353.28 216.66" stroke="#8CD3F8" stroke-width="3" stroke-linecap="round"/>
<path d="M258.75 175.95L109.02 237.36" stroke="#8CD3F8" stroke-width="3" stroke-linecap="round"/>
<path d="M46.23 175.605H50.37" stroke="#8CD3F8" stroke-width="3" stroke-linecap="round"/>
<path fill-rule="evenodd" clip-rule="evenodd" d="M126.895 135.054L129.465 136.165L131.164 140.867L120.092 148.265H112.56L126.895 135.054Z" fill="white"/>
<path d="M88.32 132.135H101.43C100.932 128.39 102.176 125.257 105.161 122.736C108.589 119.925 112.659 120.555 114.844 121.525C117.03 122.495 118.653 123.828 119.778 126.343C120.255 127.401 120.579 128.297 120.75 129.03" stroke="#C2E8FF" stroke-width="3" stroke-linecap="round"/>
<path d="M115.23 134.205C115.959 131.684 117.454 130.035 119.716 129.26C123.108 128.096 126.325 129.646 127.61 131.205C128.895 132.764 129.303 134.016 129.545 135.323C129.707 136.194 129.765 137.201 129.72 138.345C132.578 138.229 134.494 138.804 135.469 140.07C136.648 141.584 136.769 143.394 136.339 144.727C135.91 146.061 134.477 148.005 131.79 148.005H77.28" stroke="#C2E8FF" stroke-width="3" stroke-linecap="round"/>
<path d="M70.38 139.035H115.23" stroke="#C2E8FF" stroke-width="3" stroke-linecap="round"/>
<path d="M57.96 139.035H63.48" stroke="#C2E8FF" stroke-width="3" stroke-linecap="round"/>
<path d="M192.51 110.055H205.62C205.123 106.31 206.366 103.177 209.351 100.656C212.779 97.845 216.849 98.4752 219.034 99.4452C221.22 100.415 222.843 101.748 223.968 104.263C224.445 105.321 224.769 106.217 224.94 106.95" stroke="#C2E8FF" stroke-width="3" stroke-linecap="round"/>
<path d="M219.42 112.125C220.149 109.604 221.644 107.955 223.906 107.18C227.298 106.017 230.515 107.566 231.8 109.125C233.085 110.684 233.493 111.936 233.735 113.243C233.897 114.114 233.955 115.121 233.91 116.265C236.768 116.149 238.684 116.724 239.659 117.99C240.838 119.504 240.959 121.314 240.529 122.647C240.1 123.981 238.667 125.925 235.98 125.925H181.47" stroke="#C2E8FF" stroke-width="3" stroke-linecap="round"/>
<path d="M174.57 116.955H219.42" stroke="#C2E8FF" stroke-width="3" stroke-linecap="round"/>
<path d="M162.15 116.955H167.67" stroke="#C2E8FF" stroke-width="3" stroke-linecap="round"/>
<path fill-rule="evenodd" clip-rule="evenodd" d="M167.96 163.153L177.854 197.301C178.066 198.033 177.645 198.798 176.912 199.01C176.788 199.047 176.658 199.065 176.528 199.065H156.742C155.979 199.065 155.362 198.447 155.362 197.685C155.362 197.555 155.38 197.426 155.416 197.301L165.31 163.153C165.522 162.421 166.287 162 167.019 162.212C167.474 162.344 167.829 162.699 167.96 163.153Z" fill="#C2E8FF"/>
<path fill-rule="evenodd" clip-rule="evenodd" d="M166.635 162.028L178.365 199.065H154.905L166.635 162.028Z" stroke="#8CD3F8" stroke-width="3" stroke-linecap="round" stroke-linejoin="round"/>
<path fill-rule="evenodd" clip-rule="evenodd" d="M166.635 166.168C166.635 190.88 166.635 203.53 166.635 204.118C166.635 203.53 166.635 190.88 166.635 166.168Z" stroke="#8CD3F8" stroke-width="3" stroke-linecap="round" stroke-linejoin="round"/>
<path fill-rule="evenodd" clip-rule="evenodd" d="M172.155 182.038C168.475 186.497 166.635 188.797 166.635 188.938C166.635 188.797 168.475 186.497 172.155 182.038Z" stroke="#8CD3F8" stroke-width="3" stroke-linecap="round" stroke-linejoin="round"/>
<path fill-rule="evenodd" clip-rule="evenodd" d="M337.01 163.153L346.904 197.301C347.116 198.033 346.694 198.798 345.962 199.01C345.838 199.046 345.708 199.065 345.578 199.065H325.791C325.029 199.065 324.411 198.447 324.411 197.685C324.411 197.555 324.43 197.426 324.466 197.301L334.359 163.153C334.572 162.421 335.337 162 336.069 162.212C336.523 162.344 336.879 162.699 337.01 163.153Z" fill="#C2E8FF"/>
<path fill-rule="evenodd" clip-rule="evenodd" d="M335.685 158.578L347.415 199.065H323.955L335.685 158.578Z" stroke="#8CD3F8" stroke-width="3" stroke-linecap="round" stroke-linejoin="round"/>
<path fill-rule="evenodd" clip-rule="evenodd" d="M335.685 162.718C335.685 189.676 335.685 203.476 335.685 204.118C335.685 203.476 335.685 189.676 335.685 162.718Z" stroke="#8CD3F8" stroke-width="3" stroke-linecap="round" stroke-linejoin="round"/>
<path fill-rule="evenodd" clip-rule="evenodd" d="M341.205 182.038C337.525 186.497 335.685 188.797 335.685 188.938C335.685 188.797 337.525 186.497 341.205 182.038Z" stroke="#8CD3F8" stroke-width="3" stroke-linecap="round" stroke-linejoin="round"/>
<path fill-rule="evenodd" clip-rule="evenodd" d="M130.065 151.455L147.489 211.098C147.703 211.83 147.283 212.596 146.551 212.81C146.425 212.846 146.295 212.865 146.164 212.865H113.966C113.204 212.865 112.586 212.247 112.586 211.485C112.586 211.354 112.604 211.224 112.641 211.098L130.065 151.455Z" fill="#C2E8FF"/>
<path fill-rule="evenodd" clip-rule="evenodd" d="M130.065 152.835L148.005 212.865H112.125L130.065 152.835Z" stroke="#8CD3F8" stroke-width="3" stroke-linecap="round" stroke-linejoin="round"/>
<path fill-rule="evenodd" clip-rule="evenodd" d="M130.065 156.975C130.065 197.338 130.065 218.038 130.065 219.075C130.065 218.038 130.065 197.338 130.065 156.975Z" stroke="#8CD3F8" stroke-width="3" stroke-linecap="round" stroke-linejoin="round"/>
<path fill-rule="evenodd" clip-rule="evenodd" d="M122.475 181.815C127.535 186.699 130.065 189.229 130.065 189.405C130.065 189.229 127.535 186.699 122.475 181.815Z" stroke="#8CD3F8" stroke-width="3" stroke-linecap="round" stroke-linejoin="round"/>
<path fill-rule="evenodd" clip-rule="evenodd" d="M130.755 199.755C137.195 192.219 140.415 188.539 140.415 188.715C140.415 188.539 137.195 192.219 130.755 199.755Z" stroke="#8CD3F8" stroke-width="3" stroke-linecap="round" stroke-linejoin="round"/>
<path d="M276.69 104.88C285.455 104.88 292.56 97.7747 292.56 89.01C292.56 80.2452 285.455 73.14 276.69 73.14C267.925 73.14 260.82 80.2452 260.82 89.01C260.82 97.7747 267.925 104.88 276.69 104.88Z" fill="#C2E8FF"/>
<path fill-rule="evenodd" clip-rule="evenodd" d="M300.476 69.0514C289.453 55.915 269.868 54.2015 256.731 65.2243C243.595 76.2471 241.882 95.8321 252.904 108.969C263.927 122.105 283.512 123.818 296.649 112.796C309.785 101.773 311.499 82.1879 300.476 69.0514Z" stroke="#C2E8FF" stroke-width="3" stroke-linecap="round" stroke-linejoin="round" stroke-dasharray="135 1 1 18"/>
<path fill-rule="evenodd" clip-rule="evenodd" d="M265.305 69.2906C254.414 75.5783 250.683 89.5042 256.971 100.395C263.258 111.286 277.184 115.017 288.075 108.729C298.966 102.442 302.697 88.5157 296.409 77.625C290.122 66.7342 276.196 63.0028 265.305 69.2906Z" stroke="#C2E8FF" stroke-width="3" stroke-linecap="round" stroke-linejoin="round" stroke-dasharray="107 10"/>
<path d="M276.69 104.88C285.455 104.88 292.56 97.7747 292.56 89.01C292.56 80.2452 285.455 73.14 276.69 73.14C267.925 73.14 260.82 80.2452 260.82 89.01C260.82 97.7747 267.925 104.88 276.69 104.88Z" stroke="#8CD3F8" stroke-width="3"/>
</svg>
