<svg width="21" height="20" viewBox="0 0 21 20" fill="none" xmlns="http://www.w3.org/2000/svg">
<path d="M10.5 0C4.98421 0 0.5 4.48421 0.5 10C0.5 15.5158 4.98421 20 10.5 20C16.0158 20 20.5 15.5158 20.5 10C20.5 4.48421 16.0158 0 10.5 0ZM10.5 5.72632C12.2264 5.72632 13.6369 7.13684 13.6369 8.8632C13.6369 10.5895 12.2264 12.0001 10.5 12.0001C8.77365 12.0001 7.36312 10.5895 7.36312 8.8632C7.36312 7.13684 8.77365 5.72632 10.5 5.72632ZM5.02632 16.0632V15.6C5.02632 14.2736 6.09996 13.179 7.44729 13.179H13.5526C14.8789 13.179 15.9735 14.2527 15.9735 15.6V16.0632C14.5209 17.3684 12.605 18.1684 10.4998 18.1684C8.39489 18.1684 6.47917 17.3684 5.02654 16.0632H5.02632Z" fill="#969492"/>
</svg>
