<svg width="30" height="28" viewBox="0 0 30 28" fill="none" xmlns="http://www.w3.org/2000/svg">
<path d="M25.5451 0.830071H4.45503C3.27249 0.830071 2.13848 1.30029 1.30266 2.13695C0.467047 2.9738 -0.00170584 4.10844 8.44946e-06 5.2912V17.0271C-0.00229347 18.2103 0.46583 19.3458 1.30164 20.1831C2.13747 21.0205 3.27185 21.4912 4.45503 21.4912H6.00004V25.3912C6.00004 27.2422 7.1131 27.7283 8.4721 26.4712L13.8539 21.4912H25.554C26.7355 21.4889 27.8678 21.0172 28.7015 20.1799C29.5352 19.3428 30.0023 18.2086 30 17.0271V5.29115C30.0017 4.10839 29.5329 2.97374 28.6973 2.1369C27.8615 1.30027 26.7275 0.830017 25.545 0.830017L25.5451 0.830071ZM8.91594 13.1542C8.4564 13.1574 8.01444 12.977 7.6884 12.6533C7.36237 12.3293 7.17905 11.8888 7.17905 11.4293C7.17905 10.9697 7.36237 10.529 7.68861 10.2052C8.01464 9.88151 8.4564 9.70112 8.91615 9.70426C9.3757 9.70761 9.81493 9.89407 10.1364 10.2224C10.458 10.5507 10.6352 10.9937 10.6288 11.4533C10.6242 11.9049 10.4417 12.3368 10.1211 12.6551C9.80069 12.9734 9.36754 13.1528 8.91593 13.1542L8.91594 13.1542ZM14.9819 13.1542C14.5248 13.1503 14.0879 12.9651 13.7673 12.6392C13.4467 12.3132 13.2684 11.8735 13.272 11.4163C13.2753 10.9593 13.4601 10.5221 13.7857 10.2011C14.1111 9.88007 14.5508 9.70136 15.0078 9.70429C15.465 9.70722 15.9022 9.89158 16.2236 10.2166C16.545 10.5418 16.7242 10.9812 16.7218 11.4383C16.7156 11.8959 16.5295 12.3327 16.2039 12.6543C15.8785 12.9759 15.4394 13.1565 14.9818 13.1574L14.9819 13.1542ZM21.0837 13.1542C20.6262 13.1567 20.1866 12.9772 19.8614 12.6554C19.5362 12.3335 19.3522 11.8957 19.3497 11.4383C19.3474 10.9808 19.527 10.5411 19.8486 10.216C20.1705 9.89077 20.6083 9.70662 21.0657 9.70431C21.5234 9.70201 21.963 9.88135 22.2882 10.2032C22.6134 10.525 22.7974 10.9628 22.7999 11.4203C22.8039 11.8786 22.6249 12.3195 22.3029 12.6455C21.9808 12.9716 21.542 13.1557 21.0837 13.1574L21.0837 13.1542Z" fill="#1589EE"/>
</svg>
