<svg width="32" height="32" viewBox="0 0 32 32" fill="none" xmlns="http://www.w3.org/2000/svg">
<path d="M22.6754 28.9719H2.66175V11.6537H14.0163L21.2603 4.40967H0V31.6673H25.3372V13.7089L22.6753 16.3706L22.6754 28.9719Z" fill="#F4F6F9"/>
<path d="M8.72673 22.9408C8.65928 23.3451 9.02992 23.6821 9.43441 23.6146L13.2418 23.1093C13.8481 23.0419 14.3873 22.7723 14.8254 22.3344L15.0275 22.1323L10.2093 17.3477L10.0071 17.5498C9.56905 17.9879 9.29946 18.5268 9.23225 19.1334L8.72673 22.9408Z" fill="#F4F6F9"/>
<path d="M31.5703 3.46626L28.8748 0.770754C28.5716 0.467571 28.201 0.332672 27.8303 0.332672C27.4597 0.332907 27.0555 0.501186 26.7859 0.804603L11.1187 16.4382L15.9031 21.2226L31.5703 5.55532C32.1431 5.01618 32.1431 4.07277 31.5703 3.46617L31.5703 3.46626ZM30.6607 4.64563L29.0097 6.29665L26.0785 3.36542L27.7295 1.7144C27.7631 1.68079 27.797 1.64695 27.8642 1.64695C27.9316 1.64695 27.9652 1.68056 27.9988 1.7144L30.6943 4.4099C30.728 4.44351 30.7618 4.47736 30.7618 4.54457C30.6943 4.57818 30.6943 4.61179 30.6607 4.64563Z" fill="#F4F6F9"/>
</svg>
