<svg width="19" height="20" viewBox="0 0 19 20" fill="none" xmlns="http://www.w3.org/2000/svg">
<path d="M13.272 16.7489C13.7867 17.9215 13.2541 19.2905 12.0802 19.8039C10.9075 20.3186 9.53984 19.7854 9.0258 18.6114C8.88755 18.2986 8.83133 17.9707 8.83551 17.649L12.6928 15.9575C12.9318 16.1712 13.1338 16.4347 13.2721 16.7489H13.272Z" fill="#969492"/>
<path d="M1.36142 10.6199C0.272998 7.88168 0.826831 5.27151 2.45387 3.56444C2.38677 3.46177 2.31897 3.36593 2.26833 3.24819C1.75357 2.07624 2.28674 0.709939 3.45942 0.195854C4.63209 -0.318909 5.99978 0.216361 6.5144 1.38762C6.56294 1.49853 6.58973 1.61348 6.61847 1.72787C9.05601 1.67863 11.4622 3.16267 12.7196 5.68734C12.7196 5.68734 14.5823 9.96359 16.6277 10.3039C16.6906 10.3074 17.7879 10.3348 18.1227 11.1343C18.4383 11.8906 17.7886 12.903 16.6585 13.3897L4.4201 18.6638C3.2914 19.1505 2.04409 18.9553 1.77707 18.1812C1.51355 17.418 2.09193 16.7081 2.14677 16.6452C3.30157 14.8708 1.36166 10.6201 1.36166 10.6201L1.36142 10.6199Z" fill="#969492"/>
</svg>
