<svg width="24" height="24" viewBox="0 0 24 24" fill="none" xmlns="http://www.w3.org/2000/svg">
<circle cx="12" cy="12" r="12" fill="#9D53F2"/>
<path d="M8.50443 7.5H20.8429V13.5585H8.50443V7.5Z" fill="white"/>
<path d="M6.40011 14.2747C5.70647 14.2747 5.14426 14.8369 5.14426 15.5306C5.14426 16.2242 5.70647 16.7857 6.40011 16.7857C7.09346 16.7857 7.65624 16.2234 7.65624 15.5306C7.6561 14.8369 7.09346 14.2747 6.40011 14.2747ZM6.40011 16.0762C6.09891 16.0762 5.85436 15.8318 5.85436 15.5306C5.85436 15.229 6.0992 14.9848 6.40011 14.9848C6.70144 14.9848 6.94585 15.2292 6.94585 15.5306C6.94585 15.8318 6.70129 16.0762 6.40011 16.0762Z" fill="white"/>
<path d="M7.9944 9.31329H5.74959C5.07659 9.31329 4.51524 9.35054 4.25364 9.98629C3.99178 10.6223 3.39343 12.2685 3.39343 12.2685V14.3385H3V15.6795H4.76981C4.76507 15.6302 4.76228 15.5807 4.76228 15.531C4.76228 14.6269 5.49524 13.8935 6.40009 13.8935C7.30466 13.8935 8.03765 14.6269 8.03765 15.531C8.03765 15.5807 8.03486 15.6302 8.0304 15.6795H9.98199L10.7962 14.9401H12.7583C12.9125 14.543 13.2163 14.2202 13.6028 14.0439H7.99461L7.9944 9.31329ZM7.19083 11.204L6.22266 12.0961H4.11985C4.25364 11.7311 4.5731 10.8636 4.73328 10.4751C4.93821 9.9765 5.37849 9.94736 5.90613 9.94736H7.19087L7.19083 11.204ZM15.8104 14.9401H16.4853C16.6395 14.5423 16.9438 14.2195 17.3298 14.0431L14.9659 14.0432C15.3516 14.2202 15.6559 14.5422 15.8104 14.9401V14.9401ZM18.6934 14.0432C19.079 14.2204 19.3838 14.5422 19.5379 14.9402L21 14.9401V14.0431L18.6934 14.0432Z" fill="white"/>
<path d="M14.284 14.2747C13.5907 14.2747 13.028 14.8369 13.028 15.5306C13.028 16.2242 13.5907 16.7857 14.284 16.7857C14.9781 16.7857 15.5405 16.2234 15.5405 15.5306C15.5405 14.8369 14.9781 14.2747 14.284 14.2747ZM14.284 16.0762C13.9828 16.0762 13.7383 15.8318 13.7383 15.5306C13.7383 15.229 13.9838 14.9848 14.284 14.9848C14.5857 14.9848 14.8298 15.2292 14.8298 15.5306C14.8299 15.8318 14.5856 16.0762 14.284 16.0762Z" fill="white"/>
<path d="M18.0119 14.2747C17.3178 14.2747 16.7553 14.8369 16.7553 15.5306C16.7553 16.2242 17.318 16.7857 18.0119 16.7857C18.7052 16.7857 19.267 16.2234 19.267 15.5306C19.267 14.8369 18.705 14.2747 18.0119 14.2747ZM18.0119 16.0762C17.7103 16.0762 17.4661 15.8318 17.4661 15.5306C17.4661 15.229 17.7114 14.9848 18.0119 14.9848C18.3131 14.9848 18.5576 15.2292 18.5576 15.5306C18.5571 15.8318 18.3128 16.0762 18.0119 16.0762Z" fill="white"/>
</svg>
