<svg width="150" height="17" viewBox="0 0 150 17" fill="none" xmlns="http://www.w3.org/2000/svg">
<path d="M0 12.3994H150" stroke="#C9C7C5" stroke-dasharray="3"/>
<path d="M77.2144 0H55.2792V10.7707H77.2144V0Z" fill="#3E3E3C"/>
<path d="M80.9554 12.0435C82.1885 12.0435 83.188 13.0429 83.188 14.2761C83.188 15.5092 82.1885 16.5075 80.9554 16.5075C79.7227 16.5075 78.7222 15.5078 78.7222 14.2761C78.7225 13.0429 79.7227 12.0435 80.9554 12.0435ZM80.9554 15.246C81.4908 15.246 81.9256 14.8115 81.9256 14.2761C81.9256 13.7399 81.4903 13.3059 80.9554 13.3059C80.4197 13.3059 79.9852 13.7404 79.9852 14.2761C79.9852 14.8115 80.4199 15.246 80.9554 15.246Z" fill="#3E3E3C"/>
<path d="M78.1211 3.22314H82.1118C83.3083 3.22314 84.3062 3.28937 84.7713 4.41958C85.2368 5.5503 86.3006 8.47683 86.3006 8.47683V12.1569H87V14.5408H83.8537C83.8621 14.4532 83.8671 14.3652 83.8671 14.2769C83.8671 12.6696 82.564 11.3657 80.9554 11.3657C79.3473 11.3657 78.0442 12.6695 78.0442 14.2769C78.0442 14.3652 78.0491 14.4532 78.0571 14.5408H74.5876L73.1402 13.2263H69.6519C69.3778 12.5205 68.8376 11.9466 68.1506 11.6331H78.1207L78.1211 3.22314ZM79.5496 6.58446L81.2708 8.17029H85.0092C84.7713 7.52147 84.2034 5.97932 83.9186 5.28859C83.5543 4.40219 82.7716 4.35038 81.8336 4.35038H79.5496L79.5496 6.58446ZM64.2259 13.2263H63.026C62.752 12.5192 62.2111 11.9453 61.5248 11.6316L65.7274 11.6318C65.0416 11.9466 64.5007 12.519 64.2259 13.2263V13.2263ZM59.1007 11.6319C58.4152 11.9468 57.8733 12.519 57.5992 13.2266L55 13.2263V11.6316L59.1007 11.6319Z" fill="#3E3E3C"/>
<path d="M66.9395 12.0435C68.1721 12.0435 69.1724 13.0429 69.1724 14.2761C69.1724 15.5092 68.1721 16.5075 66.9395 16.5075C65.7056 16.5075 64.7059 15.5078 64.7059 14.2761C64.7059 13.0429 65.7056 12.0435 66.9395 12.0435ZM66.9395 15.246C67.475 15.246 67.9097 14.8115 67.9097 14.2761C67.9097 13.7399 67.4732 13.3059 66.9395 13.3059C66.4033 13.3059 65.9693 13.7404 65.9693 14.2761C65.969 14.8115 66.4033 15.246 66.9395 15.246Z" fill="#3E3E3C"/>
<path d="M60.3124 12.0435C61.5463 12.0435 62.5463 13.0429 62.5463 14.2761C62.5463 15.5092 61.546 16.5075 60.3124 16.5075C59.0797 16.5075 58.081 15.5078 58.081 14.2761C58.081 13.0429 59.0802 12.0435 60.3124 12.0435ZM60.3124 15.246C60.8486 15.246 61.2826 14.8115 61.2826 14.2761C61.2826 13.7399 60.8466 13.3059 60.3124 13.3059C59.7769 13.3059 59.3422 13.7404 59.3422 14.2761C59.3431 14.8115 59.7774 15.246 60.3124 15.246Z" fill="#3E3E3C"/>
</svg>
