<svg width="16" height="16" viewBox="0 0 16 16" fill="none" xmlns="http://www.w3.org/2000/svg">
<path d="M14.9229 9.55384H13.9998C13.7537 9.55384 13.5383 9.8 13.5383 10.0154V13.0923C13.5383 13.3385 13.3229 13.5538 13.0768 13.5538H2.92293C2.67677 13.5538 2.46139 13.3385 2.46139 13.0923V10.0154C2.46139 9.8 2.246 9.55384 1.99985 9.55384H1.07677C0.830619 9.55384 0.615234 9.8 0.615234 10.0154V14.1692C0.615234 14.8462 1.16908 15.4 1.846 15.4H14.1537C14.8306 15.4 15.3845 14.8462 15.3845 14.1692V10.0154C15.3845 9.8 15.1691 9.55384 14.9229 9.55384ZM8.30754 0.753845C8.12293 0.569229 7.846 0.569229 7.66139 0.753845L3.50754 4.90769C3.32293 5.09231 3.32293 5.36923 3.50754 5.55384L4.1537 6.2C4.33831 6.38461 4.61523 6.38461 4.79985 6.2L6.52293 4.47692C6.70754 4.29231 7.07677 4.41538 7.07677 4.69231V11.2154C7.07677 11.4615 7.26139 11.6769 7.50754 11.6769H8.43062C8.67677 11.6769 8.92293 11.4308 8.92293 11.2154V4.72308C8.92293 4.44615 9.23062 4.32308 9.446 4.50769L11.1691 6.23077C11.3537 6.41538 11.6306 6.41538 11.8152 6.23077L12.4614 5.58461C12.646 5.4 12.646 5.12308 12.4614 4.93846L8.30754 0.753845Z" fill="#0070D2"/>
</svg>