<svg width="16" height="16" viewBox="0 0 16 16" fill="none" xmlns="http://www.w3.org/2000/svg">
<path fill-rule="evenodd" clip-rule="evenodd" d="M13.4154 2.09231H12.1846V1.6C12.1846 1.04616 11.7539 0.615387 11.2 0.615387C10.6462 0.615387 10.2154 1.04616 10.2154 1.6V2.09231H5.78462V1.6C5.78462 1.04616 5.35385 0.615387 4.8 0.615387C4.24616 0.615387 3.81539 1.04616 3.81539 1.6V2.09231H2.58462C1.78462 2.09231 1.1077 2.76923 1.1077 3.56923V4.06154C1.1077 4.33846 1.32308 4.55385 1.6 4.55385H14.4C14.6769 4.55385 14.8923 4.33846 14.8923 4.06154V3.56923C14.8923 2.76923 14.2154 2.09231 13.4154 2.09231ZM14.4 6.03077H1.6C1.32308 6.03077 1.1077 6.24616 1.1077 6.52308V13.9077C1.1077 14.7077 1.78462 15.3846 2.58462 15.3846H13.4154C14.2154 15.3846 14.8923 14.7077 14.8923 13.9077V6.52308C14.8923 6.24616 14.6769 6.03077 14.4 6.03077ZM8 14.3692C5.96924 14.3692 4.33847 12.7077 4.33847 10.7077C4.33847 8.67693 6 7.04616 8 7.04616C10 7.04616 11.6615 8.70769 11.6615 10.7077C11.6615 12.7385 10.0308 14.3692 8 14.3692ZM8.36924 10.5538V8.98462C8.36924 8.86154 8.24616 8.73846 8.12308 8.73846H7.87693C7.75385 8.73846 7.63077 8.86154 7.63077 8.98462V10.7077C7.63077 10.8 7.66154 10.8923 7.75385 10.9538L8.92308 12.1231C9.01539 12.2154 9.16924 12.2154 9.26154 12.1231L9.44616 11.9385C9.53847 11.8462 9.53847 11.6923 9.44616 11.6L8.36924 10.5538V10.5538Z" fill="#706E6B"/>
</svg>

